<svg enable-background="new 0 0 512 512" viewBox="0 0 512 512" xmlns="http://www.w3.org/2000/svg"><path d="m228.098 496.142v-189.197c0-15.81 12.82-28.645 28.637-28.645s28.637 12.835 28.637 28.645v189.198c0 15.81-57.274 15.81-57.274-.001z" fill="#8e6049"/><path d="m412.825 421.268c1.43-1.698 2.301-3.335 2.676-4.916 2.563-6.723 1.908-15.078-3.617-21.143-21.531-23.634-44.487-57.102-66.321-92.913 9.214 2.209 18.281 3.768 26.828 4.854 12.743 1.62 20.205-16.615 10.834-26.9-23.973-26.314-50.068-67.301-73.202-107.982 12.841 4.606 26.027 7.282 37.932 8.795 10.068 1.28 15.963-13.127 8.56-21.253-31.795-34.901-68.311-102.454-90.546-146.707-1.062-3.435-3.339-5.889-6.02-7.115-1.269-.604-2.611-.89-3.95-.884-1.339-.006-2.681.28-3.95.884-2.681 1.226-4.959 3.68-6.021 7.115-22.235 44.253-58.75 111.806-90.546 146.707-7.403 8.126-1.508 22.533 8.56 21.253 11.906-1.513 25.091-4.189 37.932-8.795-23.133 40.681-49.229 81.668-73.202 107.982-9.371 10.286-1.909 28.52 10.834 26.9 8.546-1.086 17.614-2.646 26.828-4.854-21.834 35.811-44.789 69.279-66.321 92.913-8.576 9.414-5.433 24.349 3.305 30.115 37.774 39.423 86.005 42.461 153.313 42.461 69.134 0 124.099-11.361 153.992-44.16.765-.714 1.466-1.503 2.102-2.357z" fill="#2ba52e"/></svg>